<svg data-v-423bf9ae="" xmlns="http://www.w3.org/2000/svg" viewBox="0 0 425.7692124934664 60" class="font"><!----><!----><!----><g data-v-423bf9ae="" id="c1f8fd2a-ff7d-439f-9945-3a4550c1e9ef" fill="black" transform="matrix(5.244754999912469,0,0,5.244754999912469,-3.3041899074433445,-17.465032795891155)"><path d="M0.63 13.58L0.63 8.48L0.63 8.48Q0.63 8.24 0.67 8.06L0.67 8.06L0.67 8.06Q0.71 7.88 0.83 7.77L0.83 7.77L0.83 7.77Q0.94 7.65 1.15 7.59L1.15 7.59L1.15 7.59Q1.35 7.53 1.68 7.53L1.68 7.53L4.48 7.53L4.48 7.53Q4.79 7.53 5.00 7.59L5.00 7.59L5.00 7.59Q5.21 7.65 5.30 7.80L5.30 7.80L5.30 7.80Q5.39 7.73 5.52 7.66L5.52 7.66L5.52 7.66Q5.65 7.59 5.81 7.53L5.81 7.53L5.81 7.53Q5.96 7.46 6.14 7.43L6.14 7.43L6.14 7.43Q6.31 7.39 6.49 7.39L6.49 7.39L6.49 7.39Q7.12 7.39 7.49 7.81L7.49 7.81L7.49 7.81Q7.58 7.74 7.69 7.67L7.69 7.67L7.69 7.67Q7.83 7.59 7.99 7.53L7.99 7.53L7.99 7.53Q8.16 7.46 8.34 7.43L8.34 7.43L8.34 7.43Q8.52 7.39 8.71 7.39L8.71 7.39L8.71 7.39Q9.37 7.39 9.73 7.84L9.73 7.84L9.73 7.84Q10.10 8.29 10.10 9.17L10.10 9.17L10.10 14.21L10.10 14.21Q10.10 14.32 10.07 14.39L10.07 14.39L10.07 14.39Q10.04 14.45 9.99 14.48L9.99 14.48L9.99 14.48Q9.94 14.51 9.88 14.52L9.88 14.52L9.88 14.52Q9.82 14.53 9.75 14.53L9.75 14.53L9.32 14.53L9.32 14.53Q9.15 14.53 9.10 14.42L9.10 14.42L9.10 14.42Q9.04 14.32 9.04 14.21L9.04 14.21L9.04 9.10L9.04 9.10Q9.04 8.71 8.90 8.50L8.90 8.50L8.90 8.50Q8.76 8.30 8.46 8.30L8.46 8.30L8.46 8.30Q8.37 8.30 8.29 8.33L8.29 8.33L8.29 8.33Q8.20 8.36 8.11 8.41L8.11 8.41L8.11 8.41Q8.02 8.46 7.94 8.51L7.94 8.51L7.94 8.51Q7.88 8.56 7.83 8.60L7.83 8.60L7.83 8.60Q7.88 8.86 7.88 9.17L7.88 9.17L7.88 14.21L7.88 14.21Q7.88 14.32 7.85 14.39L7.85 14.39L7.85 14.39Q7.82 14.45 7.78 14.48L7.78 14.48L7.78 14.48Q7.73 14.51 7.67 14.52L7.67 14.52L7.67 14.52Q7.61 14.53 7.55 14.53L7.55 14.53L7.11 14.53L7.11 14.53Q6.93 14.53 6.88 14.42L6.88 14.42L6.88 14.42Q6.83 14.32 6.83 14.21L6.83 14.21L6.83 9.10L6.83 9.10Q6.83 8.71 6.69 8.50L6.69 8.50L6.69 8.50Q6.55 8.30 6.24 8.30L6.24 8.30L6.24 8.30Q6.08 8.30 5.92 8.38L5.92 8.38L5.92 8.38Q5.76 8.47 5.67 8.57L5.67 8.57L5.67 13.57L5.67 13.57Q5.67 13.81 5.63 13.99L5.63 13.99L5.63 13.99Q5.58 14.16 5.47 14.28L5.47 14.28L5.47 14.28Q5.35 14.40 5.15 14.46L5.15 14.46L5.15 14.46Q4.94 14.53 4.61 14.53L4.61 14.53L1.68 14.53L1.68 14.53Q1.35 14.53 1.15 14.46L1.15 14.46L1.15 14.46Q0.94 14.40 0.83 14.29L0.83 14.29L0.83 14.29Q0.71 14.17 0.67 13.99L0.67 13.99L0.67 13.99Q0.63 13.82 0.63 13.58L0.63 13.58ZM17.55 13.39L17.55 13.39L17.55 13.39Q17.73 13.39 17.88 13.34L17.88 13.34L17.88 13.34Q18.03 13.29 18.15 13.23L18.15 13.23L18.15 13.23Q18.27 13.17 18.35 13.11L18.35 13.11L18.35 13.11Q18.43 13.06 18.47 13.06L18.47 13.06L18.47 13.06Q18.53 13.06 18.56 13.08L18.56 13.08L18.56 13.08Q18.58 13.10 18.61 13.16L18.61 13.16L18.85 13.53L18.85 13.53Q18.89 13.58 18.89 13.62L18.89 13.62L18.89 13.62Q18.89 13.67 18.86 13.70L18.86 13.70L18.86 13.70Q18.83 13.73 18.81 13.75L18.81 13.75L18.81 13.75Q18.58 13.90 18.25 14.09L18.25 14.09L18.25 14.09Q17.92 14.27 17.49 14.42L17.49 14.42L17.49 14.42Q17.06 14.57 16.51 14.67L16.51 14.67L16.51 14.67Q15.96 14.77 15.31 14.77L15.31 14.77L15.31 14.77Q14.79 14.77 14.28 14.68L14.28 14.68L14.28 14.68Q13.77 14.60 13.30 14.42L13.30 14.42L13.30 14.42Q12.83 14.25 12.43 13.96L12.43 13.96L12.43 13.96Q12.02 13.67 11.73 13.25L11.73 13.25L11.73 13.25Q11.43 12.84 11.26 12.29L11.26 12.29L11.26 12.29Q11.09 11.74 11.09 11.03L11.09 11.03L11.09 11.03Q11.09 10.33 11.26 9.78L11.26 9.78L11.26 9.78Q11.43 9.23 11.73 8.81L11.73 8.81L11.73 8.81Q12.02 8.39 12.43 8.10L12.43 8.10L12.43 8.10Q12.83 7.81 13.30 7.63L13.30 7.63L13.30 7.63Q13.77 7.45 14.28 7.37L14.28 7.37L14.28 7.37Q14.79 7.29 15.31 7.29L15.31 7.29L15.31 7.29Q16.16 7.29 16.90 7.48L16.90 7.48L16.90 7.48Q17.63 7.67 18.17 8.11L18.17 8.11L18.17 8.11Q18.71 8.54 19.02 9.26L19.02 9.26L19.02 9.26Q19.33 9.97 19.33 11.00L19.33 11.00L19.33 11.38L19.33 11.38Q19.33 11.50 19.26 11.57L19.26 11.57L19.26 11.57Q19.20 11.64 19.06 11.64L19.06 11.64L16.23 11.64L16.23 11.64Q16.28 12.15 16.42 12.49L16.42 12.49L16.42 12.49Q16.56 12.82 16.74 13.03L16.74 13.03L16.74 13.03Q16.93 13.23 17.14 13.31L17.14 13.31L17.14 13.31Q17.35 13.39 17.55 13.39ZM16.20 10.80L18.35 10.80L18.35 10.80Q18.35 10.25 18.27 9.90L18.27 9.90L18.27 9.90Q18.18 9.54 18.04 9.32L18.04 9.32L18.04 9.32Q17.90 9.11 17.70 9.02L17.70 9.02L17.70 9.02Q17.51 8.93 17.29 8.93L17.29 8.93L17.29 8.93Q17.14 8.93 16.95 8.99L16.95 8.99L16.95 8.99Q16.77 9.05 16.61 9.25L16.61 9.25L16.61 9.25Q16.45 9.45 16.33 9.82L16.33 9.82L16.33 9.82Q16.22 10.19 16.20 10.80L16.20 10.80ZM20.32 13.58L20.32 8.48L20.32 8.48Q20.32 8.24 20.36 8.06L20.36 8.06L20.36 8.06Q20.40 7.88 20.51 7.77L20.51 7.77L20.51 7.77Q20.63 7.65 20.84 7.59L20.84 7.59L20.84 7.59Q21.04 7.53 21.37 7.53L21.37 7.53L24.17 7.53L24.17 7.53Q24.47 7.53 24.68 7.59L24.68 7.59L24.68 7.59Q24.90 7.65 24.99 7.80L24.99 7.80L24.99 7.80Q25.08 7.73 25.21 7.66L25.21 7.66L25.21 7.66Q25.34 7.59 25.49 7.53L25.49 7.53L25.49 7.53Q25.65 7.46 25.82 7.43L25.82 7.43L25.82 7.43Q26.00 7.39 26.18 7.39L26.18 7.39L26.18 7.39Q26.81 7.39 27.17 7.81L27.17 7.81L27.17 7.81Q27.27 7.74 27.38 7.67L27.38 7.67L27.38 7.67Q27.51 7.59 27.68 7.53L27.68 7.53L27.68 7.53Q27.84 7.46 28.03 7.43L28.03 7.43L28.03 7.43Q28.21 7.39 28.40 7.39L28.40 7.39L28.40 7.39Q29.05 7.39 29.42 7.84L29.42 7.84L29.42 7.84Q29.78 8.29 29.78 9.17L29.78 9.17L29.78 14.21L29.78 14.21Q29.78 14.32 29.75 14.39L29.75 14.39L29.75 14.39Q29.72 14.45 29.67 14.48L29.67 14.48L29.67 14.48Q29.63 14.51 29.57 14.52L29.57 14.52L29.57 14.52Q29.50 14.53 29.44 14.53L29.44 14.53L29.01 14.53L29.01 14.53Q28.83 14.53 28.78 14.42L28.78 14.42L28.78 14.42Q28.73 14.32 28.73 14.21L28.73 14.21L28.73 9.10L28.73 9.10Q28.73 8.71 28.59 8.50L28.59 8.50L28.59 8.50Q28.45 8.30 28.14 8.30L28.14 8.30L28.14 8.30Q28.06 8.30 27.97 8.33L27.97 8.33L27.97 8.33Q27.88 8.36 27.79 8.41L27.79 8.41L27.79 8.41Q27.71 8.46 27.63 8.51L27.63 8.51L27.63 8.51Q27.57 8.56 27.52 8.60L27.52 8.60L27.52 8.60Q27.57 8.86 27.57 9.17L27.57 9.17L27.57 14.21L27.57 14.21Q27.57 14.32 27.54 14.39L27.54 14.39L27.54 14.39Q27.51 14.45 27.46 14.48L27.46 14.48L27.46 14.48Q27.42 14.51 27.36 14.52L27.36 14.52L27.36 14.52Q27.30 14.53 27.23 14.53L27.23 14.53L26.80 14.53L26.80 14.53Q26.62 14.53 26.57 14.42L26.57 14.42L26.57 14.42Q26.52 14.32 26.52 14.21L26.52 14.21L26.52 9.10L26.52 9.10Q26.52 8.71 26.38 8.50L26.38 8.50L26.38 8.50Q26.24 8.30 25.93 8.30L25.93 8.30L25.93 8.30Q25.77 8.30 25.61 8.38L25.61 8.38L25.61 8.38Q25.45 8.47 25.35 8.57L25.35 8.57L25.35 13.57L25.35 13.57Q25.35 13.81 25.31 13.99L25.31 13.99L25.31 13.99Q25.27 14.16 25.16 14.28L25.16 14.28L25.16 14.28Q25.04 14.40 24.83 14.46L24.83 14.46L24.83 14.46Q24.63 14.53 24.30 14.53L24.30 14.53L21.37 14.53L21.37 14.53Q21.04 14.53 20.84 14.46L20.84 14.46L20.84 14.46Q20.63 14.40 20.51 14.29L20.51 14.29L20.51 14.29Q20.40 14.17 20.36 13.99L20.36 13.99L20.36 13.99Q20.32 13.82 20.32 13.58L20.32 13.58ZM37.24 13.39L37.24 13.39L37.24 13.39Q37.42 13.39 37.57 13.34L37.57 13.34L37.57 13.34Q37.72 13.29 37.84 13.23L37.84 13.23L37.84 13.23Q37.96 13.17 38.04 13.11L38.04 13.11L38.04 13.11Q38.12 13.06 38.16 13.06L38.16 13.06L38.16 13.06Q38.22 13.06 38.24 13.08L38.24 13.08L38.24 13.08Q38.27 13.10 38.30 13.16L38.30 13.16L38.54 13.53L38.54 13.53Q38.58 13.58 38.58 13.62L38.58 13.62L38.58 13.62Q38.58 13.67 38.55 13.70L38.55 13.70L38.55 13.70Q38.52 13.73 38.49 13.75L38.49 13.75L38.49 13.75Q38.27 13.90 37.94 14.09L37.94 14.09L37.94 14.09Q37.61 14.27 37.18 14.42L37.18 14.42L37.18 14.42Q36.74 14.57 36.20 14.67L36.20 14.67L36.20 14.67Q35.65 14.77 34.99 14.77L34.99 14.77L34.99 14.77Q34.48 14.77 33.97 14.68L33.97 14.68L33.97 14.68Q33.46 14.60 32.99 14.42L32.99 14.42L32.99 14.42Q32.52 14.25 32.12 13.96L32.12 13.96L32.12 13.96Q31.71 13.67 31.41 13.25L31.41 13.25L31.41 13.25Q31.12 12.84 30.95 12.29L30.95 12.29L30.95 12.29Q30.78 11.74 30.78 11.03L30.78 11.03L30.78 11.03Q30.78 10.33 30.95 9.78L30.95 9.78L30.95 9.78Q31.12 9.23 31.41 8.81L31.41 8.81L31.41 8.81Q31.71 8.39 32.12 8.10L32.12 8.10L32.12 8.10Q32.52 7.81 32.99 7.63L32.99 7.63L32.99 7.63Q33.46 7.45 33.97 7.37L33.97 7.37L33.97 7.37Q34.48 7.29 34.99 7.29L34.99 7.29L34.99 7.29Q35.85 7.29 36.58 7.48L36.58 7.48L36.58 7.48Q37.32 7.67 37.86 8.11L37.86 8.11L37.86 8.11Q38.40 8.54 38.71 9.26L38.71 9.26L38.71 9.26Q39.01 9.97 39.01 11.00L39.01 11.00L39.01 11.38L39.01 11.38Q39.01 11.50 38.95 11.57L38.95 11.57L38.95 11.57Q38.89 11.64 38.75 11.64L38.75 11.64L35.92 11.64L35.92 11.64Q35.97 12.15 36.11 12.49L36.11 12.49L36.11 12.49Q36.25 12.82 36.43 13.03L36.43 13.03L36.43 13.03Q36.61 13.23 36.83 13.31L36.83 13.31L36.83 13.31Q37.04 13.39 37.24 13.39ZM35.89 10.80L38.04 10.80L38.04 10.80Q38.04 10.25 37.96 9.90L37.96 9.90L37.96 9.90Q37.87 9.54 37.73 9.32L37.73 9.32L37.73 9.32Q37.58 9.11 37.39 9.02L37.39 9.02L37.39 9.02Q37.19 8.93 36.98 8.93L36.98 8.93L36.98 8.93Q36.83 8.93 36.64 8.99L36.64 8.99L36.64 8.99Q36.46 9.05 36.30 9.25L36.30 9.25L36.30 9.25Q36.13 9.45 36.02 9.82L36.02 9.82L36.02 9.82Q35.91 10.19 35.89 10.80L35.89 10.80ZM40.00 13.58L40.00 5.67L40.00 5.67Q40.00 5.43 40.04 5.25L40.04 5.25L40.04 5.25Q40.09 5.07 40.20 4.95L40.20 4.95L40.20 4.95Q40.32 4.83 40.52 4.77L40.52 4.77L40.52 4.77Q40.73 4.71 41.06 4.71L41.06 4.71L44.11 4.71L44.11 4.71Q44.50 4.71 44.71 4.83L44.71 4.83L44.71 4.83Q44.92 4.94 45.00 5.12L45.00 5.12L45.00 5.12Q45.09 5.29 45.10 5.49L45.10 5.49L45.10 5.49Q45.10 5.68 45.10 5.84L45.10 5.84L45.10 13.59L45.10 13.59Q45.58 13.52 45.98 13.47L45.98 13.47L45.98 13.47Q46.15 13.45 46.32 13.42L46.32 13.42L46.32 13.42Q46.50 13.40 46.65 13.38L46.65 13.38L46.65 13.38Q46.79 13.36 46.91 13.35L46.91 13.35L46.91 13.35Q47.02 13.34 47.08 13.34L47.08 13.34L47.08 13.34Q47.20 13.34 47.27 13.38L47.27 13.38L47.27 13.38Q47.34 13.43 47.34 13.56L47.34 13.56L47.34 14.19L47.34 14.19Q47.34 14.31 47.23 14.42L47.23 14.42L47.23 14.42Q47.13 14.53 46.89 14.53L46.89 14.53L41.04 14.53L41.04 14.53Q40.72 14.53 40.52 14.46L40.52 14.46L40.52 14.46Q40.32 14.40 40.20 14.29L40.20 14.29L40.20 14.29Q40.09 14.17 40.04 13.99L40.04 13.99L40.04 13.99Q40.00 13.82 40.00 13.58L40.00 13.58ZM52.06 14.77L52.06 14.77L52.06 14.77Q51.54 14.77 51.03 14.68L51.03 14.68L51.03 14.68Q50.52 14.60 50.05 14.42L50.05 14.42L50.05 14.42Q49.58 14.25 49.18 13.96L49.18 13.96L49.18 13.96Q48.77 13.67 48.48 13.25L48.48 13.25L48.48 13.25Q48.18 12.84 48.01 12.29L48.01 12.29L48.01 12.29Q47.84 11.74 47.84 11.03L47.84 11.03L47.84 11.03Q47.84 10.33 48.01 9.78L48.01 9.78L48.01 9.78Q48.18 9.23 48.48 8.81L48.48 8.81L48.48 8.81Q48.77 8.39 49.18 8.10L49.18 8.10L49.18 8.10Q49.58 7.81 50.05 7.63L50.05 7.63L50.05 7.63Q50.52 7.45 51.03 7.37L51.03 7.37L51.03 7.37Q51.54 7.29 52.06 7.29L52.06 7.29L52.06 7.29Q52.53 7.29 53.02 7.35L53.02 7.35L53.02 7.35Q53.52 7.40 53.99 7.56L53.99 7.56L53.99 7.56Q54.46 7.71 54.87 7.97L54.87 7.97L54.87 7.97Q55.28 8.24 55.59 8.65L55.59 8.65L55.59 8.65Q55.90 9.06 56.09 9.63L56.09 9.63L56.09 9.63Q56.27 10.20 56.27 10.97L56.27 10.97L56.27 10.97Q56.27 11.76 56.09 12.36L56.09 12.36L56.09 12.36Q55.91 12.95 55.60 13.37L55.60 13.37L55.60 13.37Q55.29 13.79 54.88 14.06L54.88 14.06L54.88 14.06Q54.47 14.33 54.00 14.49L54.00 14.49L54.00 14.49Q53.53 14.64 53.03 14.70L53.03 14.70L53.03 14.70Q52.53 14.77 52.06 14.77ZM54.15 13.13L54.15 13.13L54.15 13.13Q54.37 13.13 54.57 13.03L54.57 13.03L54.57 13.03Q54.78 12.94 54.94 12.70L54.94 12.70L54.94 12.70Q55.10 12.46 55.20 12.04L55.20 12.04L55.20 12.04Q55.30 11.62 55.30 10.97L55.30 10.97L55.30 10.97Q55.30 10.36 55.20 9.96L55.20 9.96L55.20 9.96Q55.10 9.56 54.94 9.33L54.94 9.33L54.94 9.33Q54.78 9.11 54.57 9.02L54.57 9.02L54.57 9.02Q54.37 8.93 54.15 8.93L54.15 8.93L54.15 8.93Q53.99 8.93 53.79 9.00L53.79 9.00L53.79 9.00Q53.59 9.06 53.41 9.29L53.41 9.29L53.41 9.29Q53.24 9.51 53.12 9.92L53.12 9.92L53.12 9.92Q53.01 10.34 53.01 11.03L53.01 11.03L53.01 11.03Q53.01 11.72 53.10 12.13L53.10 12.13L53.10 12.13Q53.20 12.55 53.35 12.77L53.35 12.77L53.35 12.77Q53.51 12.99 53.72 13.06L53.72 13.06L53.72 13.06Q53.93 13.13 54.15 13.13ZM57.26 13.58L57.26 8.48L57.26 8.48Q57.26 8.24 57.30 8.06L57.30 8.06L57.30 8.06Q57.34 7.88 57.46 7.77L57.46 7.77L57.46 7.77Q57.57 7.65 57.78 7.59L57.78 7.59L57.78 7.59Q57.98 7.53 58.31 7.53L58.31 7.53L61.30 7.53L61.30 7.53Q61.62 7.53 61.81 7.59L61.81 7.59L61.81 7.59Q62.00 7.65 62.11 7.77L62.11 7.77L62.11 7.77Q62.22 7.90 62.26 8.08L62.26 8.08L62.26 8.08Q62.30 8.26 62.30 8.51L62.30 8.51L62.30 9.02L63.81 7.54L63.81 7.54Q63.96 7.40 64.09 7.40L64.09 7.40L64.09 7.40Q64.17 7.40 64.23 7.43L64.23 7.43L64.23 7.43Q64.29 7.46 64.33 7.50L64.33 7.50L64.63 7.82L64.63 7.82Q64.74 7.92 64.74 8.05L64.74 8.05L64.74 8.05Q64.74 8.12 64.69 8.20L64.69 8.20L64.69 8.20Q64.65 8.28 64.55 8.35L64.55 8.35L62.30 10.10L62.30 13.56L62.30 13.56Q62.30 13.80 62.26 13.98L62.26 13.98L62.26 13.98Q62.23 14.16 62.11 14.28L62.11 14.28L62.11 14.28Q62.00 14.40 61.78 14.46L61.78 14.46L61.78 14.46Q61.56 14.53 61.18 14.53L61.18 14.53L58.31 14.53L58.31 14.53Q57.98 14.53 57.78 14.46L57.78 14.46L57.78 14.46Q57.57 14.40 57.46 14.29L57.46 14.29L57.46 14.29Q57.34 14.17 57.30 13.99L57.30 13.99L57.30 13.99Q57.26 13.82 57.26 13.58L57.26 13.58ZM72.61 4.28L72.61 13.58L72.61 13.58Q72.61 13.82 72.57 13.99L72.57 13.99L72.57 13.99Q72.53 14.17 72.41 14.29L72.41 14.29L72.41 14.29Q72.30 14.40 72.09 14.46L72.09 14.46L72.09 14.46Q71.89 14.53 71.56 14.53L71.56 14.53L68.57 14.53L68.57 14.53Q68.07 14.51 67.58 14.43L67.58 14.43L67.58 14.43Q67.09 14.36 66.65 14.19L66.65 14.19L66.65 14.19Q66.21 14.02 65.83 13.75L65.83 13.75L65.83 13.75Q65.45 13.48 65.18 13.09L65.18 13.09L65.18 13.09Q64.90 12.71 64.74 12.19L64.74 12.19L64.74 12.19Q64.59 11.66 64.59 10.99L64.59 10.99L64.59 10.99Q64.59 10.14 64.83 9.54L64.83 9.54L64.83 9.54Q65.06 8.93 65.47 8.52L65.47 8.52L65.47 8.52Q65.88 8.11 66.43 7.88L66.43 7.88L66.43 7.88Q66.97 7.64 67.57 7.53L67.57 7.53L67.57 4.29L67.57 4.29Q67.57 4.05 67.61 3.87L67.61 3.87L67.61 3.87Q67.64 3.68 67.75 3.56L67.75 3.56L67.75 3.56Q67.86 3.45 68.05 3.39L68.05 3.39L68.05 3.39Q68.24 3.33 68.56 3.33L68.56 3.33L71.56 3.33L71.56 3.33Q71.89 3.33 72.09 3.39L72.09 3.39L72.09 3.39Q72.30 3.45 72.41 3.57L72.41 3.57L72.41 3.57Q72.53 3.68 72.57 3.87L72.57 3.87L72.57 3.87Q72.61 4.05 72.61 4.28L72.61 4.28ZM65.56 10.99L65.56 10.99L65.56 10.99Q65.56 11.50 65.67 11.94L65.67 11.94L65.67 11.94Q65.79 12.38 66.03 12.72L66.03 12.72L66.03 12.72Q66.27 13.06 66.66 13.28L66.66 13.28L66.66 13.28Q67.04 13.49 67.57 13.56L67.57 13.56L67.57 8.40L67.57 8.40Q67.04 8.46 66.66 8.69L66.66 8.69L66.66 8.69Q66.27 8.91 66.03 9.25L66.03 9.25L66.03 9.25Q65.79 9.59 65.67 10.04L65.67 10.04L65.67 10.04Q65.56 10.48 65.56 10.99ZM78.74 7.29L78.74 7.29L78.74 7.29Q79.18 7.29 79.62 7.34L79.62 7.34L79.62 7.34Q80.06 7.39 80.45 7.47L80.45 7.47L80.45 7.47Q80.84 7.55 81.17 7.65L81.17 7.65L81.17 7.65Q81.49 7.75 81.70 7.85L81.70 7.85L81.70 7.85Q81.73 7.86 81.77 7.89L81.77 7.89L81.77 7.89Q81.81 7.92 81.81 7.99L81.81 7.99L81.81 7.99Q81.81 8.01 81.80 8.05L81.80 8.05L81.80 8.05Q81.79 8.08 81.79 8.11L81.79 8.11L81.70 8.52L81.70 8.52Q81.69 8.60 81.67 8.62L81.67 8.62L81.67 8.62Q81.64 8.63 81.62 8.63L81.62 8.63L81.62 8.63Q81.59 8.63 81.49 8.61L81.49 8.61L81.49 8.61Q81.40 8.59 81.29 8.59L81.29 8.59L81.29 8.59Q80.90 8.59 80.67 8.80L80.67 8.80L80.67 8.80Q80.45 9.01 80.38 9.53L80.38 9.53L80.00 12.72L80.00 12.72Q79.95 13.15 79.72 13.51L79.72 13.51L79.72 13.51Q79.49 13.88 79.06 14.16L79.06 14.16L79.06 14.16Q78.63 14.44 77.99 14.60L77.99 14.60L77.99 14.60Q77.36 14.77 76.51 14.77L76.51 14.77L76.51 14.77Q75.98 14.77 75.48 14.70L75.48 14.70L75.48 14.70Q74.97 14.64 74.54 14.54L74.54 14.54L74.54 14.54Q74.12 14.45 73.80 14.36L73.80 14.36L73.80 14.36Q73.48 14.27 73.32 14.21L73.32 14.21L73.32 14.21Q73.27 14.20 73.24 14.17L73.24 14.17L73.24 14.17Q73.21 14.15 73.21 14.10L73.21 14.10L73.21 14.10Q73.21 14.07 73.21 14.03L73.21 14.03L73.21 14.03Q73.22 14 73.23 13.95L73.23 13.95L73.32 13.57L73.32 13.57Q73.33 13.51 73.36 13.48L73.36 13.48L73.36 13.48Q73.40 13.45 73.49 13.45L73.49 13.45L73.49 13.45Q73.71 13.45 73.94 13.42L73.94 13.42L73.94 13.42Q74.17 13.40 74.36 13.30L74.36 13.30L74.36 13.30Q74.56 13.19 74.71 12.98L74.71 12.98L74.71 12.98Q74.85 12.77 74.91 12.39L74.91 12.39L75.39 9.09L75.39 9.09Q75.46 8.57 75.77 8.22L75.77 8.22L75.77 8.22Q76.08 7.88 76.53 7.67L76.53 7.67L76.53 7.67Q76.99 7.46 77.56 7.37L77.56 7.37L77.56 7.37Q78.13 7.29 78.74 7.29Z"></path></g><!----><!----></svg>